# xmcd
#
# Track frame offsets: 
#        150
#        13118
#        27691
#        41803
#        56590
#        70166
#        85488
#        99870
#        114480
#        134851
#        149516
#        167879
#        181123
#        193003
#        208042
#        222295
#        236205
#        249938
#        263193
#        275850
#
# Disc length: 3845 seconds
#
# Revision: 0
# Processed by: cddbd v1.5.1PL0 Copyright (c) Steve Scherf et al.
# Submitted via: ExactAudioCopy v0.95a5
#
DISCID=3d0f0314
DTITLE=Ella Fitzgerald - The Legendary Vol 2
DYEAR=2002
DGENRE=Blues
TTITLE0=Love is the Thing, So They Say
TTITLE1=If You Ever Should Leave
TTITLE2=Everyone's Wrong But Me
TTITLE3=Somewhere Deep in the Heart of the South
TTITLE4=Just A Simple Melody
TTITLE5=I Got A Guy
TTITLE6=Holiday in Harlem
TTITLE7=Rock It For Me
TTITLE8=I Want to be Happy
TTITLE9=The Dipsy Doodle
TTITLE10=Hallelujah!
TTITLE11=I Was Doing All Right
TTITLE12=A-Tisket A-Tasket
TTITLE13=I'm Just A Jitterbug
TTITLE14=This Time It's Real
TTITLE15=You Can't Be Mine (And Somebody Else's Too)
TTITLE16=We Can't Go On This Way
TTITLE17=Pack Up Your Sins And Go to the Devil
TTITLE18=Everybody Step
TTITLE19=Ella
EXTD=
EXTT0=
EXTT1=
EXTT2=
EXTT3=
EXTT4=
EXTT5=
EXTT6=
EXTT7=
EXTT8=
EXTT9=
EXTT10=
EXTT11=
EXTT12=
EXTT13=
EXTT14=
EXTT15=
EXTT16=
EXTT17=
EXTT18=
EXTT19=
PLAYORDER=
